<svg xmlns="http://www.w3.org/2000/svg" viewBox="0 0 102.53 30.82"><defs><style>.cls-1{fill-rule:evenodd;}</style></defs><g id="Layer_2" data-name="Layer 2"><g id="Layer_1-2" data-name="Layer 1"><path class="cls-1" d="M1.73,17.69H13.14c-.5-1.54-1-3-1.41-4.4l3-4.47,2.93,8.78h4.26c-.47-1.44-.92-2.84-1.4-4.32l2.9-4.41c1.15,3,2,5.89,3,8.75h4.27c-.47-1.46-.92-2.84-1.42-4.37l2.82-4.31H42.28l1.5,4.34h-10c.53,1.57,1,2.91,1.45,4.35h10c.5,1.46,1,2.86,1.51,4.37-.44,0-.74.09-1.05.09-4.15,0-8.29.08-12.43.08s-8-.06-12.06-.07c-1.75,0-3.49.12-5.24.11-4.22,0-8.72-.09-12.95-.14Z"/><path class="cls-1" d="M70.39,22.14c-.53-1.42-1-2.74-1.49-4.07a1.56,1.56,0,0,1,0-.93c.86-2.66,1.75-5.3,2.64-7.94,0-.08.09-.13.18-.25h7.14L82,17.7c-1.44,4.33-2.9,8.7-4.36,13.08H73.18L76,22.14Zm5.46-8.86-1.08.06c-.5,1.43-1,2.81-1.51,4.28h4.23Z"/><path class="cls-1" d="M45,4.53c1-1.46,1.9-2.88,3-4.48,2.09,6,4.12,11.73,6.17,17.55h5.77c-.47-1.45-.93-2.83-1.41-4.31l3-4.49c1.51,4.51,2.95,8.79,4.38,13.07A133.72,133.72,0,0,1,51.21,22C49.18,16.25,47.14,10.45,45,4.53Z"/><path class="cls-1" d="M99.47,22.06H89.38l-2.92,8.7H82c1.45-4.37,2.89-8.68,4.36-13.07H93.6l-1.44-4.41L95,9.05A123,123,0,0,1,99.47,22.06Z"/><path class="cls-1" d="M3,.05c1.55,4.54,3,8.82,4.51,13.2H3L0,4.52Z"/><path class="cls-1" d="M20.44,0c.53,1.63,1,3,1.47,4.47H17.55C18.41,2.94,19.44,1.62,20.44,0Z"/><path class="cls-1" d="M102.53,30.82H98.07l3-4.45Z"/><path class="cls-1" d="M39.22.05l1.47,4.42h-4.4C37.27,3,38.17,1.62,39.22.05Z"/><path class="cls-1" d="M68.85,30.78H64.46c.91-1.47,1.82-2.83,2.92-4.37C67.91,28,68.37,29.35,68.85,30.78Z"/></g></g></svg>